<?xml version="1.0" standalone="no"?>
<!DOCTYPE svg PUBLIC "-//W3C//DTD SVG 20010904//EN"
 "http://www.w3.org/TR/2001/REC-SVG-20010904/DTD/svg10.dtd">
<svg version="1.0" xmlns="http://www.w3.org/2000/svg"
 width="526.000000pt" height="526.000000pt" viewBox="0 0 526.000000 526.000000"
 preserveAspectRatio="xMidYMid meet">
<metadata>
Created by potrace 1.14, written by Peter Selinger 2001-2017
</metadata>
<g transform="translate(0.000000,526.000000) scale(0.100000,-0.100000)"
fill="#000000" stroke="none">
<path d="M1599 4351 l-1036 -900 -13 -112 c-6 -62 -23 -164 -36 -228 -12 -63
-21 -117 -19 -119 2 -2 180 150 397 338 356 309 401 351 474 448 149 196 334
355 536 462 79 42 154 103 564 459 261 227 474 415 474 419 -1 9 -246 122
-280 128 -22 5 -159 -110 -1061 -895z"/>
<path d="M2899 4717 l-324 -282 135 -6 c74 -3 170 -12 213 -19 77 -13 78 -13
105 12 15 14 135 119 267 233 132 114 244 211 248 215 4 4 -43 25 -105 47 -62
22 -136 49 -164 61 l-51 20 -324 -281z"/>
<path d="M1710 4873 c-135 -44 -320 -89 -437 -107 -76 -11 -98 -18 -125 -42
-18 -16 -164 -143 -324 -281 l-290 -253 8 -72 c5 -39 12 -124 16 -189 l7 -118
610 530 c587 510 655 570 645 568 -3 -1 -52 -17 -110 -36z"/>
<path d="M439 4816 c-9 -19 -5 -54 18 -167 l29 -142 124 108 c184 160 171 142
119 154 -24 6 -85 25 -134 41 -113 37 -142 38 -156 6z"/>
<path d="M4294 4402 l-501 -437 50 -55 c28 -30 70 -82 95 -115 24 -33 45 -62
47 -64 2 -1 178 149 392 334 l388 338 37 176 c20 97 37 190 37 207 1 30 -14
55 -33 53 -6 0 -236 -197 -512 -437z"/>
<path d="M3588 4550 c-153 -132 -278 -244 -278 -249 0 -4 23 -18 52 -32 29
-13 90 -48 136 -77 l84 -52 113 97 c596 517 575 498 547 504 -15 4 -49 7 -77
8 -46 1 -198 22 -270 36 -28 6 -50 -11 -307 -235z"/>
<path d="M2540 4209 c-573 -48 -1054 -442 -1215 -994 -44 -150 -58 -271 -51
-440 8 -220 52 -395 145 -579 190 -373 536 -638 954 -731 115 -26 383 -31 508
-10 296 49 564 190 772 404 176 182 291 387 352 630 95 380 26 782 -192 1110
-68 102 -219 262 -318 335 -218 163 -459 254 -731 276 -70 5 -127 9 -128 9 -1
-1 -44 -5 -96 -10z m152 -322 c18 -344 430 -510 676 -273 l43 41 40 -45 c104
-118 190 -261 235 -392 23 -69 22 -78 -6 -78 -9 0 -44 -14 -77 -30 -75 -37
-155 -120 -191 -197 -24 -52 -27 -69 -27 -168 0 -105 2 -114 33 -177 36 -74
116 -155 182 -184 l40 -18 -35 -64 c-72 -130 -184 -258 -304 -345 l-63 -47
-31 46 c-78 118 -251 191 -392 165 -136 -25 -244 -106 -301 -226 -19 -38 -34
-79 -34 -90 0 -11 -3 -29 -6 -41 -5 -19 -10 -20 -52 -13 -76 14 -182 48 -259
84 -84 39 -211 119 -219 138 -3 8 11 37 31 66 50 75 68 146 63 246 -12 233
-218 407 -449 380 l-58 -7 -8 39 c-11 57 -8 269 6 343 7 36 21 96 32 133 17
57 23 67 37 61 94 -40 215 -42 315 -4 78 29 167 113 207 193 54 111 56 256 5
357 -14 27 -25 51 -25 53 0 3 37 21 83 40 138 59 291 93 438 96 l66 1 5 -83z"/>
<path d="M2545 3217 c-157 -52 -258 -167 -287 -327 -23 -120 23 -262 112 -351
129 -129 338 -155 496 -63 59 35 131 115 162 182 24 51 27 69 27 167 0 104 -2
114 -32 176 -40 81 -121 160 -200 197 -47 21 -76 27 -148 29 -56 2 -105 -2
-130 -10z"/>
<path d="M4419 3743 l-295 -256 32 -86 c18 -47 41 -119 51 -159 l19 -73 240
209 239 208 6 204 c3 113 5 206 4 207 0 1 -134 -113 -296 -254z"/>
<path d="M4490 3041 l-225 -197 -2 -60 c-5 -103 -23 -246 -42 -321 -10 -40
-16 -73 -14 -73 1 0 138 118 303 262 222 193 299 265 295 277 -12 30 -55 216
-61 264 -4 26 -12 47 -18 46 -6 0 -112 -89 -236 -198z"/>
<path d="M601 2719 c-319 -277 -471 -416 -469 -427 7 -34 47 -42 225 -42 l172
0 261 228 262 227 3 140 c1 77 8 171 14 209 7 38 10 70 8 72 -2 2 -216 -181
-476 -407z"/>
<path d="M3525 1438 c-759 -661 -1381 -1204 -1383 -1208 -4 -9 256 -131 284
-133 16 -2 314 252 1110 943 598 520 1102 959 1120 975 26 25 33 42 43 105 7
41 14 87 17 103 l6 27 103 0 104 0 80 71 80 70 -57 78 c-32 42 -70 98 -85 124
-15 26 -31 47 -35 46 -4 0 -628 -541 -1387 -1201z"/>
<path d="M894 2209 c-115 -100 -226 -197 -247 -216 l-39 -35 41 -116 c54 -157
64 -182 73 -182 5 0 120 97 257 216 l249 217 -33 71 c-17 39 -42 103 -55 141
-12 39 -26 74 -30 78 -3 4 -101 -74 -216 -174z"/>
<path d="M1124 1645 c-137 -119 -255 -223 -263 -230 -11 -11 -9 -22 17 -67 47
-81 132 -200 142 -196 5 2 133 111 284 242 l276 240 -78 80 c-43 45 -89 96
-103 114 l-25 33 -250 -216z"/>
<path d="M3705 828 c-423 -368 -786 -683 -805 -700 l-35 -29 50 21 c99 41 344
169 461 239 403 245 741 562 970 911 58 90 140 231 132 230 -1 -1 -349 -303
-773 -672z"/>
<path d="M1509 1214 c-156 -135 -292 -254 -301 -263 -17 -16 -16 -19 26 -66
24 -28 73 -76 109 -108 l65 -57 341 296 c188 163 341 300 341 305 0 5 -6 9
-14 9 -7 0 -71 29 -142 65 -71 35 -132 65 -135 65 -4 0 -134 -111 -290 -246z"/>
<path d="M2023 897 c-215 -188 -394 -345 -398 -348 -3 -4 53 -46 125 -94 118
-80 132 -86 148 -73 69 60 950 823 960 832 9 9 -32 12 -175 11 -104 0 -206 3
-228 7 l-40 6 -392 -341z"/>
</g>
</svg>
