<?xml version="1.0" standalone="no"?>
<!DOCTYPE svg PUBLIC "-//W3C//DTD SVG 20010904//EN"
 "http://www.w3.org/TR/2001/REC-SVG-20010904/DTD/svg10.dtd">
<svg version="1.0" xmlns="http://www.w3.org/2000/svg"
 width="397.000000pt" height="397.000000pt" viewBox="0 0 397.000000 397.000000"
 preserveAspectRatio="xMidYMid meet">
<metadata>
Created by potrace 1.14, written by Peter Selinger 2001-2017
</metadata>
<g transform="translate(0.000000,397.000000) scale(0.100000,-0.100000)"
fill="#000000" stroke="none">
<path d="M1986 3571 c-162 -140 -294 -257 -292 -258 1 -2 34 4 72 12 165 35
360 29 541 -17 l83 -20 171 148 c94 82 185 161 202 175 l30 25 -118 38 c-65
21 -180 64 -256 95 l-139 58 -294 -256z"/>
<path d="M1354 3696 c-52 -23 -273 -84 -362 -100 -121 -23 -285 -30 -375 -17
l-79 11 -90 -77 c-87 -75 -90 -78 -85 -113 28 -183 48 -343 54 -434 l8 -109
475 413 c261 227 482 419 490 426 18 17 4 17 -36 0z"/>
<path d="M3545 3636 c-16 -7 -184 -147 -372 -311 l-343 -298 59 -66 c81 -92
142 -177 182 -255 19 -36 36 -66 39 -66 3 0 102 84 220 186 l215 186 17 142
c10 77 31 210 48 294 16 85 30 162 30 172 0 31 -44 39 -95 16z"/>
<path d="M1890 3169 c-279 -27 -547 -179 -721 -408 -64 -85 -152 -264 -179
-366 -31 -114 -38 -338 -16 -459 92 -485 484 -827 976 -852 516 -26 967 322
1075 831 23 108 24 303 1 415 -72 352 -326 653 -654 776 -152 57 -320 79 -482
63z m125 -243 c7 -124 90 -233 207 -272 100 -33 241 -1 307 70 l25 26 34 -32
c71 -69 166 -223 190 -311 9 -33 8 -39 -6 -43 -142 -43 -232 -157 -232 -295 0
-36 7 -86 16 -112 18 -55 87 -134 138 -162 41 -22 41 -23 -7 -104 -33 -57
-172 -205 -219 -236 l-28 -17 -47 50 c-67 71 -137 102 -233 102 -58 0 -87 -6
-126 -24 -86 -40 -156 -130 -171 -220 -5 -31 -9 -36 -33 -36 -68 0 -287 92
-359 151 l-23 19 30 45 c100 152 44 362 -120 446 -32 17 -66 24 -131 27 -83 4
-88 6 -93 29 -13 52 3 276 25 344 l21 67 48 -15 c67 -21 164 -13 228 20 133
68 197 234 145 377 -12 33 -20 64 -16 69 9 16 155 68 220 80 99 18 108 19 158
17 l48 -1 4 -59z"/>
<path d="M1897 2416 c-95 -34 -163 -110 -194 -215 -41 -142 44 -308 185 -362
82 -30 187 -24 262 17 104 57 168 176 157 294 -10 114 -68 199 -169 250 -51
25 -73 30 -132 30 -39 -1 -88 -7 -109 -14z"/>
<path d="M600 2367 l-275 -240 -41 -88 c-47 -98 -81 -150 -149 -230 -81 -95
-63 -109 139 -109 l145 0 6 -47 c4 -27 7 -52 9 -56 1 -5 84 63 184 150 l182
158 -7 75 c-19 187 1 386 57 543 16 45 28 82 27 83 -1 1 -126 -107 -277 -239z"/>
<path d="M3405 2248 c-88 -77 -165 -145 -172 -151 -6 -7 -17 -56 -23 -109 -32
-273 -152 -526 -336 -712 -107 -108 -192 -169 -329 -236 -193 -95 -342 -130
-563 -130 l-117 0 -302 -263 c-297 -257 -301 -262 -280 -279 41 -32 213 -135
312 -188 l101 -54 999 869 c550 477 1011 878 1024 890 l24 23 -28 49 c-47 83
-97 214 -124 324 l-26 106 -160 -139z"/>
<path d="M810 1271 c-102 -89 -186 -167 -188 -174 -4 -17 141 -234 213 -320
51 -61 59 -67 73 -55 27 23 406 350 420 363 10 9 -1 22 -55 62 -67 50 -190
172 -248 246 l-30 39 -185 -161z"/>
</g>
</svg>
