<?xml version="1.0" standalone="no"?>
<!DOCTYPE svg PUBLIC "-//W3C//DTD SVG 20010904//EN"
 "http://www.w3.org/TR/2001/REC-SVG-20010904/DTD/svg10.dtd">
<svg version="1.0" xmlns="http://www.w3.org/2000/svg"
 width="942.000000pt" height="942.000000pt" viewBox="0 0 942.000000 942.000000"
 preserveAspectRatio="xMidYMid meet">
<metadata>
Created by potrace 1.14, written by Peter Selinger 2001-2017
</metadata>
<g transform="translate(0.000000,942.000000) scale(0.100000,-0.100000)"
fill="#000000" stroke="none">
<path d="M7168 9315 c-2 -2 -19 -5 -38 -8 -43 -7 -80 -14 -145 -28 -27 -6 -59
-13 -70 -15 -51 -9 -191 -50 -196 -57 -3 -5 -9 -8 -13 -7 -4 1 -28 -4 -54 -11
-26 -7 -49 -13 -52 -13 -3 -1 -18 -6 -35 -13 -16 -6 -84 -30 -150 -53 -66 -23
-133 -48 -150 -55 -16 -7 -61 -25 -100 -40 -38 -15 -81 -32 -95 -38 -14 -6
-28 -11 -32 -12 -5 -2 -10 -4 -13 -5 -3 -1 -8 -3 -12 -5 -5 -1 -21 -7 -36 -13
-16 -7 -30 -12 -32 -12 -2 0 -25 -10 -52 -22 -26 -11 -52 -22 -58 -24 -5 -2
-80 -30 -165 -64 -85 -34 -166 -65 -180 -70 -14 -5 -72 -27 -130 -50 -58 -23
-118 -46 -135 -50 -16 -5 -115 -38 -220 -74 -164 -56 -343 -109 -410 -122 -11
-2 -38 -8 -60 -13 -49 -12 -84 -19 -155 -31 -97 -17 -134 -22 -170 -25 -19 -2
-35 -4 -35 -5 0 -6 -199 -13 -360 -13 -236 -1 -415 6 -415 15 0 4 -8 5 -17 4
-16 -3 -78 4 -183 20 -19 3 -48 7 -65 9 -16 3 -61 11 -100 20 -38 9 -77 17
-85 19 -45 8 -266 73 -295 86 -11 5 -60 24 -109 42 -89 33 -130 64 -185 137
-33 45 -94 74 -154 72 -27 0 -55 -5 -61 -10 -6 -5 -15 -10 -21 -12 -37 -9 -45
-12 -45 -20 0 -5 -4 -9 -10 -9 -34 0 -171 -155 -185 -210 -1 -3 -7 -17 -13
-31 -26 -64 -32 -193 -12 -255 14 -40 79 -105 122 -121 51 -18 85 -15 166 13
70 24 204 40 226 27 5 -3 28 -7 52 -9 24 -1 54 -6 66 -10 13 -4 32 -8 43 -10
11 -1 65 -12 120 -24 55 -11 114 -23 130 -26 63 -10 101 -17 120 -21 43 -9 63
-12 165 -27 58 -9 128 -19 155 -22 100 -10 121 -13 190 -19 54 -5 289 -15 360
-15 78 0 375 17 426 25 19 3 50 7 69 9 56 7 186 26 210 31 14 3 30 -4 44 -20
26 -28 69 -186 64 -236 -3 -32 -25 -62 -39 -53 -4 2 -46 -5 -95 -17 -92 -20
-99 -22 -124 -31 -8 -3 -50 -18 -92 -33 -43 -15 -78 -32 -78 -38 0 -6 -3 -8
-6 -4 -3 3 -24 -1 -47 -9 -23 -8 -55 -16 -72 -19 -16 -2 -30 -4 -30 -5 0 -1
-9 -3 -20 -4 -144 -18 -180 -24 -208 -32 -10 -3 -31 -7 -48 -9 -17 -3 -39 -7
-49 -10 -10 -3 -28 -8 -39 -10 -12 -3 -29 -7 -39 -9 -38 -9 -220 -79 -267
-104 -27 -15 -75 -43 -105 -63 -88 -58 -98 -61 -194 -65 -156 -7 -303 -37
-416 -87 -25 -10 -59 -26 -77 -33 -17 -8 -36 -14 -42 -14 -6 0 -11 -4 -11 -8
0 -5 -15 -16 -32 -26 -104 -55 -186 -117 -290 -219 -58 -57 -138 -151 -138
-162 0 -3 -6 -13 -13 -20 -27 -31 -36 -43 -53 -76 -10 -19 -17 -37 -16 -41 1
-5 -2 -8 -7 -8 -10 0 -82 -163 -84 -191 -1 -10 -6 -19 -11 -19 -5 0 -7 -3 -3
-6 3 -3 -3 -26 -13 -50 -11 -24 -17 -44 -15 -44 14 0 -90 -164 -124 -194 -11
-11 -21 -26 -21 -34 0 -9 -3 -13 -6 -9 -3 3 -20 -8 -37 -25 -18 -17 -66 -56
-107 -87 -41 -31 -84 -63 -94 -71 -33 -26 -140 -134 -166 -169 -14 -18 -30
-38 -36 -44 -12 -14 -84 -126 -84 -131 0 -2 -16 -37 -35 -78 -19 -41 -42 -101
-51 -134 -14 -50 -43 -164 -44 -171 0 -2 0 -4 -1 -5 -19 -58 -26 -267 -18
-568 1 -67 -2 -114 -10 -128 -6 -12 -8 -22 -4 -22 4 0 2 -5 -5 -12 -7 -7 -12
-20 -12 -29 0 -10 -3 -19 -7 -21 -8 -3 -39 -84 -49 -128 -30 -131 -41 -240
-49 -477 -2 -67 -6 -126 -8 -130 -3 -5 -8 -29 -12 -53 -3 -25 -9 -58 -12 -75
-8 -37 -6 -316 2 -365 3 -19 7 -44 9 -55 2 -11 4 -20 5 -20 2 0 4 -9 6 -20 9
-52 50 -185 57 -185 4 0 8 -7 8 -16 0 -27 108 -234 146 -280 24 -30 47 -47 74
-54 22 -6 44 -18 49 -28 5 -9 9 -51 8 -92 0 -83 8 -165 24 -225 6 -22 11 -48
12 -57 1 -10 5 -18 10 -18 4 0 6 -4 3 -8 -7 -12 69 -165 117 -237 44 -65 95
-124 170 -194 135 -128 128 -120 195 -241 90 -163 208 -310 338 -421 59 -51
73 -61 202 -149 79 -54 99 -74 124 -120 27 -50 54 -91 83 -128 5 -8 36 -39 68
-71 50 -51 82 -75 197 -150 29 -20 186 -91 209 -96 9 -2 46 -11 84 -20 71 -16
175 -21 242 -10 22 4 78 19 125 35 79 26 87 27 120 13 35 -14 100 -36 195 -66
77 -24 227 -58 233 -53 2 3 12 1 22 -4 9 -5 39 -12 66 -14 27 -3 82 -9 122
-14 40 -5 102 -8 138 -8 35 1 64 -2 64 -5 0 -10 408 3 495 16 41 6 119 15 185
22 78 7 249 7 285 -1 17 -4 41 -9 55 -11 14 -2 41 -10 60 -18 48 -19 171 -16
350 10 25 3 54 7 65 9 11 1 20 3 20 4 0 2 36 10 74 16 19 2 38 7 43 10 4 3 21
7 36 10 37 6 174 54 190 66 6 6 12 8 12 4 0 -12 251 121 295 156 91 73 135 98
205 115 75 19 70 17 114 36 21 9 41 17 45 17 8 0 163 92 185 111 53 43 125
110 164 151 25 26 79 69 121 95 91 57 75 45 191 141 53 43 118 102 145 132 28
29 59 63 70 75 11 11 36 41 55 65 19 25 38 46 42 48 4 2 8 10 8 18 0 8 3 14 8
14 4 0 20 21 37 48 16 26 33 52 38 57 25 31 102 169 155 276 100 203 127 304
127 480 l0 126 50 32 c28 18 61 48 75 67 14 19 30 41 35 47 11 13 16 27 71
177 33 90 66 212 79 290 3 19 8 42 10 50 4 13 15 103 18 138 0 6 3 12 6 12 3
0 6 12 7 28 0 15 4 41 7 57 4 17 9 44 12 60 4 17 12 57 20 90 25 110 29 158
29 380 0 211 -4 270 -25 380 -6 27 -12 63 -14 78 -7 52 -66 259 -97 346 -30
83 -32 93 -33 261 -2 152 -6 189 -29 280 -15 58 -29 116 -32 130 -32 158 -175
452 -283 582 -31 38 -36 44 -112 123 -64 67 -79 90 -94 140 -36 124 -59 183
-107 283 -28 56 -54 102 -59 102 -5 0 -8 3 -7 8 4 10 -93 152 -103 152 -4 0
-10 9 -14 19 -6 20 -275 302 -275 289 0 -4 -18 11 -40 33 -22 22 -40 38 -40
34 0 -3 -10 4 -22 16 -74 69 -222 155 -285 164 -67 10 -91 17 -145 42 -32 15
-58 31 -58 35 0 4 -4 8 -10 8 -5 0 -32 14 -61 31 -54 31 -152 61 -204 62 -28
0 -57 -5 -115 -19 -48 -12 -106 -3 -170 27 -36 17 -123 48 -195 69 -71 21
-173 53 -225 70 -52 18 -102 33 -110 35 -8 2 -16 4 -17 5 -2 2 -7 4 -13 5 -5
1 -12 4 -15 5 -3 1 -8 3 -12 5 -5 1 -15 4 -23 8 -58 22 -282 83 -344 93 -21 3
-48 8 -60 10 -52 12 -106 17 -173 18 -40 1 -73 3 -73 6 0 3 -10 6 -21 7 -28 2
-30 5 -33 50 -6 96 67 258 154 343 85 81 91 85 235 140 33 13 74 29 92 36 17
8 37 14 45 14 8 0 18 4 24 9 5 5 34 16 64 26 30 10 60 20 65 24 6 3 12 6 15 6
6 0 66 23 100 38 33 14 30 13 68 22 17 4 32 12 32 18 0 6 3 8 6 5 5 -6 159 51
196 72 10 6 23 10 28 10 6 0 32 9 58 21 26 11 56 24 67 29 11 5 58 23 105 41
47 18 89 36 95 41 5 4 16 8 25 8 8 0 26 6 40 13 14 8 39 18 55 24 17 6 75 28
130 48 55 20 105 37 110 39 6 1 16 5 22 9 7 5 23 10 34 12 19 4 50 14 129 43
8 3 20 6 25 7 6 2 44 12 85 23 122 34 178 43 289 45 45 1 81 -2 81 -7 0 -5 3
-7 6 -4 6 7 115 -17 159 -34 62 -25 143 -78 188 -124 43 -45 119 -161 123
-190 1 -7 8 -30 15 -51 11 -34 16 -175 7 -213 -8 -33 -57 -126 -76 -146 -12
-12 -18 -25 -15 -28 4 -3 2 -6 -4 -6 -9 0 -41 -23 -73 -54 -19 -18 -118 -63
-156 -71 -16 -3 -40 -8 -54 -11 -72 -16 -165 -4 -225 29 -32 17 -95 71 -95 81
0 3 -7 14 -15 23 -8 10 -15 21 -15 26 0 4 -6 20 -14 35 -23 45 -18 141 10 184
28 44 85 76 134 75 55 -2 67 -21 44 -72 -4 -11 -8 -46 -9 -77 0 -55 2 -59 44
-97 51 -46 83 -53 155 -33 154 43 213 167 161 340 -11 34 -23 62 -27 62 -4 0
-8 6 -8 13 0 20 -85 95 -132 116 -158 72 -298 77 -437 15 -22 -10 -41 -21 -41
-26 0 -4 -6 -8 -13 -8 -6 0 -30 -17 -52 -37 -115 -107 -172 -231 -176 -384 -2
-72 10 -179 20 -179 4 0 7 -9 8 -21 2 -27 42 -109 65 -133 10 -11 18 -26 18
-33 0 -7 3 -13 8 -13 4 -1 30 -22 59 -48 46 -42 124 -88 207 -121 114 -46 298
-62 427 -36 109 21 102 19 117 28 6 5 12 5 12 2 0 -3 10 1 22 9 12 9 30 16 40
16 10 0 18 4 18 9 0 5 11 12 25 15 14 4 25 11 25 16 0 6 7 10 15 10 22 0 160
139 197 200 105 170 150 405 116 603 -5 29 -10 57 -12 62 -2 6 -4 12 -4 15 0
5 -29 82 -47 125 -4 11 -7 23 -7 28 1 4 -3 7 -8 7 -6 0 -10 5 -10 11 0 48
-224 289 -268 289 -6 0 -12 4 -14 8 -5 12 -77 52 -94 52 -8 0 -14 5 -14 10 0
6 -11 10 -25 10 -14 0 -25 5 -25 10 0 6 -9 10 -21 10 -11 0 -28 4 -37 9 -9 5
-34 12 -56 15 -21 4 -43 9 -49 13 -11 6 -313 14 -319 8z"/>
</g>
</svg>
